<?xml version="1.0" encoding="utf-8"?>
<!-- Generator: Adobe Illustrator 19.0.1, SVG Export Plug-In . SVG Version: 6.00 Build 0)  -->
<svg version="1.1" id="Layer_1" xmlns="http://www.w3.org/2000/svg" xmlns:xlink="http://www.w3.org/1999/xlink" x="0px" y="0px"
	 viewBox="0 0 450 450" style="enable-background:new 0 0 450 450;" xml:space="preserve">
<style type="text/css">
	.st0{fill:#5B2B82;}
	.st1{fill:#0AB0ED;}
	.st2{fill:#002179;}
	.st3{fill:#125979;}
	.st4{fill:none;}
	.st5{fill:#FFFFFF;}
</style>
<g>
	<path class="st0" d="M320.6,285.4c-6.8-2-13.5-3.9-20.2-5.8c-2.3-0.7-4.6-1.4-6.9-2c-0.9-0.2-1.4-0.7-1.9-1.4
		c-7.7-12.1-17.4-22.3-29.9-29.6c-10.2-6-21.2-9.4-33-9.9c-19.3-0.8-36.1,5.5-50.8,17.7c-7.3,6-13.3,13.1-18.4,21
		c-0.3,0.5-0.9,1-1.4,1.1c-9.2,2.7-18.5,5.4-27.7,8c-0.2,0.1-0.4,0.1-0.7,0.2c-1-2.8-2.1-5.5-3-8.2c-5.9-16.8-10.3-34-13-51.6
		c-1.4-9.1-2.5-18.3-2.9-27.5c-0.2-5-0.4-10.1-0.3-15.1c0.3-18.5,2.7-36.7,9.2-54.2c4.8-12.8,11.5-24.4,20.9-34.4
		c10.9-11.7,24.1-19.9,39.1-25.2C189.4,65,199.6,63,210,62c7.2-0.7,14.4-0.9,21.7-0.6c16.8,0.7,33.1,3.7,48.5,10.9
		c23.3,10.8,39.4,28.5,49.2,52c4.3,10.4,7.1,21.3,8.7,32.4c1.2,7.8,1.8,15.6,2,23.5c0.3,10.8-0.3,21.5-1.5,32.2
		c-2.7,24.7-8.6,48.5-17.5,71.7C321,284.5,320.8,284.9,320.6,285.4z"/>
	<path class="st0" d="M300.5,306.5c0.9-3.3,1.8-6.4,2.7-9.5c0.2-0.8,0.4-1.1,1.4-0.8c18.2,5.3,36.3,10.5,54.5,15.8
		c0.3,0.1,0.6,0.2,1,0.4c-7.3,25.1-14.5,50.2-21.8,75.5c-18.9-5.5-37.7-10.9-56.6-16.4c0.8-2.8,1.6-5.4,2.4-8.3
		c-1.6-0.5-3.2-1-4.7-1.4c-2.7-0.8-5.4-1.5-8-2.3c-0.9-0.3-1.6-0.2-2.4,0.4c-8.4,6.2-17.5,10.9-27.6,13.4c-15.7,3.8-30.8,2-45.4-4.8
		c-5.3-2.5-10.3-5.6-15-9.2c-0.7-0.5-1.2-0.7-2.1-0.4c-3.7,1.1-7.4,2.1-11,3.2c-0.3,0.1-0.5,0.2-0.9,0.3c0.8,2.7,1.5,5.3,2.3,8.1
		c-2.3,0.7-4.6,1.4-6.9,2c-15.9,4.6-31.7,9.2-47.6,13.8c-0.3,0.1-0.6,0.1-0.8,0.2c-1,0.5-1.4,0.1-1.7-0.9c-2-7.1-4.1-14.3-6.2-21.4
		c-5-17.1-9.9-34.3-14.9-51.4c-0.1-0.5-0.2-0.9-0.4-1.5c18.9-5.5,37.7-10.9,56.5-16.4c1.1,3.6,2.1,7.1,3.1,10.7
		c3.5-1,6.9-2,10.2-2.9c5.1-1.5,10.2-3,15.3-4.4c0.9-0.2,1.3-0.7,1.7-1.4c4.6-9.1,10.6-17,18.6-23.3c6.9-5.4,14.7-9,23.5-10.1
		c11.6-1.4,22.2,1.6,31.8,8.2c9.4,6.5,16.2,15.2,21.3,25.3c0.7,1.4,1.5,2.1,3,2.5c7.8,2.2,15.6,4.5,23.4,6.7
		C299.6,306.3,300,306.4,300.5,306.5z M256.3,327.2c0-16.8-13.9-30.7-30.2-31c-17.1-0.4-31.9,13.2-32,30.8
		c-0.1,17.4,13.8,31.5,31.1,31.4C243,358.3,256.4,344,256.3,327.2z"/>
</g>
</svg>
