<?xml version="1.0" encoding="utf-8"?>
<!-- Generator: Adobe Illustrator 19.0.1, SVG Export Plug-In . SVG Version: 6.00 Build 0)  -->
<svg version="1.1" id="Layer_1" xmlns="http://www.w3.org/2000/svg" xmlns:xlink="http://www.w3.org/1999/xlink" x="0px" y="0px"
	 viewBox="0 0 450 450" style="enable-background:new 0 0 450 450;" xml:space="preserve">
<style type="text/css">
	.st0{fill:#5B2B82;}
	.st1{fill:#0AB0ED;}
	.st2{fill:#002179;}
	.st3{fill:#125979;}
	.st4{fill:none;}
	.st5{fill:#FFFFFF;}
</style>
<g>
	<path class="st0" d="M331.9,103c0,0-106.4-29.8-106.8-29.9c0,0,0-0.1,0-0.1l-0.1,0l-0.1,0c0,0,0,0,0,0.1
		c-0.4,0.1-106.8,29.9-106.8,29.9c0,36.6-3,94.4,0.5,130.7c4,40.8,23.5,76.1,57.1,99.7c10.7,7.5,22.3,13.7,34.4,18.5
		c0.8,0.3,13.1,4.1,14.8,5c0,0.1,0,0.1,0,0.1c0,0,0,0,0.1-0.1c0.1,0,0.1,0.1,0.1,0.1c0,0,0-0.1,0-0.1c1.7-0.8,13.9-4.6,14.8-5
		c12.1-4.8,23.7-11.1,34.4-18.5c33.6-23.6,53.1-58.9,57.1-99.7C334.9,197.4,331.9,139.6,331.9,103z M224.8,300
		c-12.4,0-22.5-10.1-22.5-22.5c0-12.4,10.1-22.5,22.5-22.5c12.4,0,22.5,10.1,22.5,22.5C247.2,289.9,237.2,300,224.8,300z
		 M236.1,237.9h-20.8L197.1,136h56.9L236.1,237.9z"/>
</g>
</svg>
