<?xml version="1.0" encoding="utf-8"?>
<!-- Generator: Adobe Illustrator 19.0.1, SVG Export Plug-In . SVG Version: 6.00 Build 0)  -->
<svg version="1.1" id="Layer_1" xmlns="http://www.w3.org/2000/svg" xmlns:xlink="http://www.w3.org/1999/xlink" x="0px" y="0px"
	 viewBox="0 0 450 450" style="enable-background:new 0 0 450 450;" xml:space="preserve">
<style type="text/css">
	.st0{fill:#5B2B82;}
	.st1{fill:#0AB0ED;}
	.st2{fill:#002179;}
	.st3{fill:#125979;}
	.st4{fill:none;}
	.st5{fill:#FFFFFF;}
</style>
<g>
	<path class="st0" d="M321,104v27h-39v-27h-13v27h-39v-27h-12v27h-39v-27h-13.5v27h-39v-27H95v227h260V104H321z M166,305h-39v-39h39
		V305z M166,254h-39v-39h39V254z M166,203h-39v-39h39V203z M217.7,305h-39v-39h39V305z M217.7,254h-39v-39h39V254z M217.7,203h-39
		v-39h39V203z M269.3,305h-39v-39h39V305z M269.3,254h-39v-39h39V254z M269.3,203h-39v-39h39V203z M321,305h-39v-39h39V305z
		 M321,254h-39v-39h39V254z M321,203h-39v-39h39V203z"/>
	<rect x="127" y="164" class="st5" width="39" height="39"/>
	<rect x="178.7" y="164" class="st5" width="39" height="39"/>
	<rect x="282" y="164" class="st5" width="39" height="39"/>
	<polygon class="st0" points="136.5,122 155.5,122 155.5,92 155.5,83 136.5,83 136.5,92 	"/>
	<polygon class="st0" points="189,122 208,122 208,92 208,83 189,83 189,92 	"/>
	<polygon class="st0" points="240,122 259,122 259,92 259,83 240,83 240,92 	"/>
	<polygon class="st0" points="292,122 311,122 311,92 311,83 292,83 292,92 	"/>
	<rect x="230.3" y="164" class="st5" width="39" height="39"/>
	<rect x="127" y="215" class="st5" width="39" height="39"/>
	<rect x="178.7" y="215" class="st5" width="39" height="39"/>
	<rect x="282" y="215" class="st5" width="39" height="39"/>
	<rect x="230.3" y="215" class="st5" width="39" height="39"/>
	<rect x="127" y="266" class="st5" width="39" height="39"/>
	<rect x="178.7" y="266" class="st5" width="39" height="39"/>
	<rect x="282" y="266" class="st5" width="39" height="39"/>
	<rect x="230.3" y="266" class="st5" width="39" height="39"/>
</g>
</svg>
