<?xml version="1.0" encoding="utf-8"?>
<!-- Generator: Adobe Illustrator 19.0.1, SVG Export Plug-In . SVG Version: 6.00 Build 0)  -->
<svg version="1.1" id="Layer_1" xmlns="http://www.w3.org/2000/svg" xmlns:xlink="http://www.w3.org/1999/xlink" x="0px" y="0px"
	 viewBox="0 0 450 450" style="enable-background:new 0 0 450 450;" xml:space="preserve">
<style type="text/css">
	.st0{fill:#5B2B82;}
	.st1{fill:#0AB0ED;}
	.st2{fill:#002179;}
	.st3{fill:#125979;}
	.st4{fill:none;}
	.st5{fill:#FFFFFF;}
</style>
<path class="st0" d="M259,193.4V162h-13v-18.9l18.2,7.4l0.3-0.3l0.2,0.2l85.2-71.1l-11.5-13.8l-26.1,21.8L162.1,58.9l0.1,12.7
	l-32.2-2.1l-2,30.9l34.4,2.2v7.4c0,34.8-24.7,64.7-58.8,71.2l-9.8,1.9l3.7,19.6l9.8-1.9c41.2-7.9,71.6-42.5,74.8-83.8l27.8,11.4V162
	h-14v31.4c-36.1,12.9-62,47.5-62,88.1c0,38.2,22.9,71,55.6,85.5H172v18h111v-18h-17.6c32.8-14.5,55.6-47.3,55.6-85.5
	C321,240.9,295.1,206.4,259,193.4z"/>
<g>
	<path class="st5" d="M285,279.5c0,31.8-25.7,57.5-57.5,57.5S170,311.3,170,279.5"/>
</g>
</svg>
