<?xml version="1.0" encoding="utf-8"?>
<!-- Generator: Adobe Illustrator 19.0.1, SVG Export Plug-In . SVG Version: 6.00 Build 0)  -->
<svg version="1.1" id="Layer_1" xmlns="http://www.w3.org/2000/svg" xmlns:xlink="http://www.w3.org/1999/xlink" x="0px" y="0px"
	 viewBox="0 0 450 450" style="enable-background:new 0 0 450 450;" xml:space="preserve">
<style type="text/css">
	.st0{fill:#5B2B82;}
	.st1{fill:#0AB0ED;}
	.st2{fill:#002179;}
	.st3{fill:#125979;}
	.st4{fill:none;}
	.st5{fill:#FFFFFF;}
</style>
<g>
	<path class="st0" d="M263.9,193.2V93.1h-78v98.4l-74.2,119.3l45.8,46h3.2h128.4h6l43.9-44.2L263.9,193.2z M230.6,191
		c6.6,0,12,5.4,12,12s-5.4,12-12,12c-6.6,0-12-5.4-12-12S224,191,230.6,191z M206.6,225c11.5,0,20.8,9.3,20.8,20.8
		s-9.3,20.8-20.8,20.8c-11.5,0-20.8-9.3-20.8-20.8S195.1,225,206.6,225z M284.2,332.2H169.4l-1.3-1.3l-22.7-22.7l15.1-24h76.2
		c0-0.2,0-0.3,0-0.5c0-11.5,9.3-20.8,20.8-20.8c11.5,0,20.8,9.3,20.8,20.8c0,0.2,0,0.3,0,0.5h13.3l15.1,24L284.2,332.2z"/>
	<circle class="st5" cx="206.6" cy="245.8" r="20.8"/>
	<circle class="st5" cx="230.6" cy="202.9" r="12"/>
	<path class="st5" d="M291.7,284.3h-13.3c0-0.2,0-0.3,0-0.5c0-11.5-9.3-20.8-20.8-20.8c-11.5,0-20.8,9.3-20.8,20.8
		c0,0.2,0,0.3,0,0.5h-76.2l-15.1,24l22.7,22.7l1.3,1.3h114.7l22.7-24L291.7,284.3z"/>
</g>
</svg>
