<?xml version="1.0" encoding="utf-8"?>
<!-- Generator: Adobe Illustrator 19.0.1, SVG Export Plug-In . SVG Version: 6.00 Build 0)  -->
<svg version="1.1" id="Layer_1" xmlns="http://www.w3.org/2000/svg" xmlns:xlink="http://www.w3.org/1999/xlink" x="0px" y="0px"
	 viewBox="0 0 450 450" style="enable-background:new 0 0 450 450;" xml:space="preserve">
<style type="text/css">
	.st0{fill:#5B2B82;}
	.st1{fill:#0AB0ED;}
	.st2{fill:#002179;}
	.st3{fill:#125979;}
	.st4{fill:none;}
	.st5{fill:#FFFFFF;}
</style>
<g>
	<path class="st0" d="M328.4,369c0-20.2-16.4-36.5-36.5-36.5h-32.7c39.8-13.7,68.5-51.5,68.5-95.9c0-28.8-12.4-55.8-32.9-74.7l32-32
		l-11-11L345.5,89l-17-17l-29.9,29.9l-11-11l-89.4,89.4l-8-8l-12.4,12.5l52.9,52.6l12.4-12.5l-5.7-5.7l31.8-31.8
		c13.9,12.2,22.4,30,22.4,49.1c0,36-29.3,65.2-65.2,65.2c-19.7,0-37.9-8.9-50.1-23.6H198v-19.6h-93.5v19.6h29.4
		c11.7,25.9,33.5,45.3,59.6,54.2h-23.3c-20.2,0-36.5,16.4-36.5,36.5v9h194.9V369z"/>
</g>
</svg>
