<?xml version="1.0" encoding="utf-8"?>
<!-- Generator: Adobe Illustrator 19.0.1, SVG Export Plug-In . SVG Version: 6.00 Build 0)  -->
<svg version="1.1" id="Layer_1" xmlns="http://www.w3.org/2000/svg" xmlns:xlink="http://www.w3.org/1999/xlink" x="0px" y="0px"
	 viewBox="0 0 450 450" style="enable-background:new 0 0 450 450;" xml:space="preserve">
<style type="text/css">
	.st0{fill:#5B2B82;}
	.st1{fill:#0AB0ED;}
	.st2{fill:#002179;}
	.st3{fill:#125979;}
	.st4{fill:none;}
	.st5{fill:#FFFFFF;}
</style>
<path class="st0" d="M127.4,127.6c8.5,4.6,16.5,8.8,24.4,13c3.2,1.7,6.5,3.3,9.5,5.2c2.4,1.5,3.9,1.3,6-0.8
	c18.2-18.4,36.6-36.7,54.9-55c0.9-0.9,1.4-2,2.2-3c0.3,0.2,0.7,0.4,1,0.6c1.5,5,3.1,10.1,4.6,15.1c2.2,7.3,4.6,14.6,6.6,22
	c0.6,2.3,1.6,2.9,3.9,2.9c26.1-0.1,52.3-0.1,78.4-0.1c1.1,0,2.3,0,3.9,0c-0.7,1.4-1.2,2.5-1.7,3.5c-5.4,10.2-10.8,20.3-16.4,30.4
	c-1.4,2.5-1.2,3.9,0.8,6c18.4,18.2,36.7,36.6,55.1,54.9c0.8,0.8,1.8,1.4,3.4,2.6c-2.2,0.8-3.4,1.3-4.6,1.6
	c-11.2,3.4-22.4,6.9-33.7,10.1c-2.1,0.6-2.8,1.5-2.8,3.7c0.1,26.3,0,52.5,0,78.8c0,1.1,0,2.2,0,3.9c-6.5-3.5-12.5-6.7-18.5-9.9
	c-5.2-2.8-10.4-5.4-15.5-8.4c-2.3-1.4-3.7-1.2-5.7,0.8c-18.2,18.4-36.6,36.7-54.9,55c-0.9,0.9-1.8,1.7-3.1,2.9
	c-2.1-6.8-4.1-13.2-6-19.6c-1.7-5.7-3.5-11.4-5.1-17.2c-0.7-2.7-1.9-3.7-4.9-3.7c-25.5,0.1-50.9,0.1-76.4,0.1c-1.7,0-3.3,0-5.5,0
	c0.6-1.4,1.1-2.4,1.6-3.3c5.6-10.4,11.2-20.9,17-31.3c1.2-2.1,0.9-3.2-0.7-4.9c-18.6-18.5-37.2-37.1-55.7-55.7
	c-0.8-0.8-1.5-1.6-2.6-2.8c8.4-2.5,16.3-4.9,24.3-7.3c4.4-1.3,8.8-2.8,13.3-3.9c2.3-0.6,2.9-1.6,2.9-3.9
	c-0.1-26.3-0.1-52.5-0.1-78.8C127.4,130.3,127.4,129.3,127.4,127.6z M188.3,224.9c-0.1,21,16.5,37.8,37.5,37.9
	c21.2,0.2,38.1-16.5,38.2-37.6c0.1-21.2-16.5-38-37.6-38.1C205.2,187.1,188.4,203.8,188.3,224.9z"/>
</svg>
