<?xml version="1.0" encoding="utf-8"?>
<!-- Generator: Adobe Illustrator 16.0.0, SVG Export Plug-In . SVG Version: 6.00 Build 0)  -->
<!DOCTYPE svg PUBLIC "-//W3C//DTD SVG 1.1//EN" "http://www.w3.org/Graphics/SVG/1.1/DTD/svg11.dtd">
<svg version="1.1" id="Layer_1" xmlns="http://www.w3.org/2000/svg" xmlns:xlink="http://www.w3.org/1999/xlink" x="0px" y="0px"
	 width="402.448px" height="368.016px" viewBox="198.692 248.578 402.448 368.016"
	 enable-background="new 198.692 248.578 402.448 368.016" xml:space="preserve">
<g>
	<path fill="#777" d="M497.918,348.321c0-55.163-44.712-99.743-99.742-99.743s-99.742,44.712-99.742,99.743
		c0,42.86,26.985,79.371,64.819,93.525l-19.446,35.85l42.199,20.504l-47.358,22.092l47.358,21.033l-42.331,31.087l47.755,44.183
		l34.923-33.071l0.661-139.692C468.155,431.396,497.918,393.298,497.918,348.321z M398.176,346.866
		c-17.064,0-30.822-13.757-30.822-30.822s13.758-30.822,30.822-30.822s30.822,13.757,30.822,30.822S415.109,346.866,398.176,346.866
		z"/>
</g>
</svg>
