<?xml version="1.0" encoding="utf-8"?>
<!-- Generator: Adobe Illustrator 16.0.0, SVG Export Plug-In . SVG Version: 6.00 Build 0)  -->
<!DOCTYPE svg PUBLIC "-//W3C//DTD SVG 1.1//EN" "http://www.w3.org/Graphics/SVG/1.1/DTD/svg11.dtd">
<svg version="1.1" id="Layer_1" xmlns="http://www.w3.org/2000/svg" xmlns:xlink="http://www.w3.org/1999/xlink" x="0px" y="0px"
	 width="402.448px" height="368.016px" viewBox="198.692 248.578 402.448 368.016"
	 enable-background="new 198.692 248.578 402.448 368.016" xml:space="preserve">
<path fill="#777" stroke="#000000" stroke-miterlimit="10" d="M269.471,302.286c11.244,6.085,21.827,11.641,32.277,17.197
	c4.233,2.249,8.599,4.365,12.567,6.879c3.175,1.984,5.159,1.72,7.937-1.058c24.076-24.34,48.416-48.548,72.624-72.757
	c1.191-1.19,1.853-2.646,2.911-3.968c0.396,0.265,0.926,0.529,1.322,0.793c1.984,6.614,4.101,13.361,6.085,19.975
	c2.91,9.657,6.085,19.313,8.73,29.103c0.794,3.042,2.117,3.836,5.159,3.836c34.526-0.132,69.185-0.132,103.711-0.132
	c1.455,0,3.043,0,5.159,0c-0.926,1.852-1.587,3.307-2.249,4.63c-7.143,13.493-14.286,26.854-21.694,40.214
	c-1.852,3.307-1.587,5.159,1.059,7.937c24.34,24.076,48.548,48.417,72.889,72.624c1.059,1.059,2.381,1.853,4.498,3.439
	c-2.911,1.059-4.498,1.72-6.086,2.117c-14.815,4.497-29.632,9.127-44.579,13.36c-2.778,0.794-3.704,1.984-3.704,4.895
	c0.132,34.791,0,69.449,0,104.24c0,1.455,0,2.91,0,5.159c-8.599-4.63-16.536-8.863-24.473-13.097
	c-6.879-3.703-13.758-7.143-20.504-11.111c-3.043-1.853-4.895-1.588-7.541,1.059c-24.075,24.34-48.416,48.548-72.624,72.756
	c-1.19,1.19-2.381,2.249-4.101,3.836c-2.778-8.995-5.424-17.461-7.937-25.928c-2.249-7.54-4.63-15.08-6.747-22.753
	c-0.926-3.571-2.514-4.895-6.481-4.895c-33.732,0.133-67.333,0.133-101.065,0.133c-2.249,0-4.365,0-7.276,0
	c0.794-1.853,1.456-3.175,2.117-4.365c7.408-13.758,14.815-27.647,22.488-41.405c1.587-2.778,1.19-4.233-0.926-6.482
	c-24.605-24.472-49.21-49.077-73.683-73.682c-1.059-1.059-1.984-2.117-3.439-3.704c11.111-3.308,21.562-6.482,32.146-9.657
	c5.82-1.72,11.641-3.704,17.594-5.159c3.042-0.793,3.836-2.116,3.836-5.159c-0.133-34.791-0.133-69.449-0.133-104.24
	C269.471,305.857,269.471,304.534,269.471,302.286z M350.032,430.998c-0.133,27.78,21.826,50.004,49.606,50.136
	c28.044,0.265,50.4-21.826,50.532-49.738c0.133-28.044-21.827-50.269-49.738-50.401
	C372.388,380.995,350.164,403.086,350.032,430.998z"/>
</svg>
