<?xml version="1.0" encoding="utf-8"?>
<!-- Generator: Adobe Illustrator 19.0.1, SVG Export Plug-In . SVG Version: 6.00 Build 0)  -->
<svg version="1.1" id="Layer_1" xmlns="http://www.w3.org/2000/svg" xmlns:xlink="http://www.w3.org/1999/xlink" x="0px" y="0px"
	 viewBox="0 0 450 450" style="enable-background:new 0 0 450 450;" xml:space="preserve">
<style type="text/css">
	.st0{fill:#5B2B82;}
	.st1{fill:#0AB0ED;}
	.st2{fill:#002179;}
	.st3{fill:#125979;}
	.st4{fill:none;}
	.st5{fill:#FFFFFF;}
</style>
<g>
	<path class="st0" d="M225,93c-72.9,0-132,59.1-132,132c0,72.9,59.1,132,132,132s132-59.1,132-132C357,152.1,297.9,93,225,93z
		 M258.4,269.5c-6.6,5.6-15.9,8.9-27.8,10v17.7h-11.8v-17.3c-14-0.3-26.3-2.8-36.9-7.4v-22.8c5,2.5,11,4.7,18.1,6.6
		c7,1.9,13.3,3,18.8,3.4v-26.7l-5.8-2.2c-11.4-4.5-19.5-9.4-24.2-14.6c-4.7-5.3-7.1-11.8-7.1-19.5c0-8.3,3.3-15.2,9.8-20.6
		c6.5-5.4,15.6-8.6,27.3-9.8v-13.2h11.8v12.9c13.2,0.6,25.1,3.2,35.7,7.9l-8.1,20.2c-9-3.7-18.2-5.9-27.6-6.7v25.4
		c11.2,4.3,19.2,8.1,23.9,11.2c4.7,3.2,8.2,6.6,10.4,10.4c2.2,3.8,3.3,8.2,3.3,13.3C268.3,256.6,265,264,258.4,269.5z"/>
	<path class="st0" d="M207.7,196.4c0,2.5,0.9,4.6,2.6,6.3c1.8,1.6,4.6,3.3,8.5,5v-20.3C211.4,188.5,207.7,191.5,207.7,196.4z"/>
	<path class="st0" d="M239.4,242.6c-2-1.7-4.9-3.4-8.8-5.2v21.5c7.8-1.3,11.7-4.7,11.7-10.2C242.3,246.3,241.4,244.3,239.4,242.6z"
		/>
</g>
</svg>
