<?xml version="1.0" encoding="utf-8"?>
<!-- Generator: Adobe Illustrator 19.0.1, SVG Export Plug-In . SVG Version: 6.00 Build 0)  -->
<svg version="1.1" id="Layer_1" xmlns="http://www.w3.org/2000/svg" xmlns:xlink="http://www.w3.org/1999/xlink" x="0px" y="0px"
	 viewBox="0 0 450 450" style="enable-background:new 0 0 450 450;" xml:space="preserve">
<style type="text/css">
	.st0{fill:#5B2B82;}
	.st1{fill:#0AB0ED;}
	.st2{fill:#002179;}
	.st3{fill:#125979;}
	.st4{fill:none;}
	.st5{fill:#FFFFFF;}
</style>
<g>
	<path class="st4" d="M135.3,280.7l145.4-145.4c-16.7-10.4-35.8-15.9-55.7-15.9c-28.2,0-54.7,11-74.7,30.9
		c-19.9,19.9-30.9,46.5-30.9,74.7C119.4,245,124.9,264.1,135.3,280.7z"/>
	<path class="st4" d="M315.5,170.5l-145,145c16.4,9.9,35.1,15.1,54.5,15.1c28.2,0,54.7-11,74.7-30.9c19.9-19.9,30.9-46.5,30.9-74.7
		C330.6,205.5,325.4,186.8,315.5,170.5z"/>
	<path class="st0" d="M225,72c-84.4,0-153,68.6-153,153s68.6,153,153,153s153-68.6,153-153S309.4,72,225,72z M225,119.4
		c20,0,39.1,5.5,55.7,15.9L135.3,280.7c-10.4-16.7-15.9-35.8-15.9-55.7c0-28.2,11-54.7,30.9-74.7C170.3,130.4,196.8,119.4,225,119.4
		z M225,330.6c-19.5,0-38.2-5.2-54.5-15.1l145-145c9.9,16.4,15.1,35.1,15.1,54.5c0,28.2-11,54.7-30.9,74.7
		C279.7,319.6,253.2,330.6,225,330.6z"/>
</g>
</svg>
