<?xml version="1.0" encoding="utf-8"?>
<!-- Generator: Adobe Illustrator 19.0.1, SVG Export Plug-In . SVG Version: 6.00 Build 0)  -->
<svg version="1.1" id="Layer_1" xmlns="http://www.w3.org/2000/svg" xmlns:xlink="http://www.w3.org/1999/xlink" x="0px" y="0px"
	 viewBox="0 0 450 450" style="enable-background:new 0 0 450 450;" xml:space="preserve">
<style type="text/css">
	.st0{fill:#5B2B82;}
	.st1{fill:#0AB0ED;}
	.st2{fill:#002179;}
	.st3{fill:#125979;}
	.st4{fill:none;}
	.st5{fill:#FFFFFF;}
</style>
<g>
	<path class="st0" d="M301,170.1c0-41.7-33.8-75.4-75.4-75.4s-75.4,33.8-75.4,75.4c0,32.4,20.4,60,49,70.7l-14.7,27.1l31.9,15.5
		l-35.8,16.7l35.8,15.9l-32,23.5l36.1,33.4l26.4-25l0.5-105.6C278.5,232.9,301,204.1,301,170.1z M225.6,169
		c-12.9,0-23.3-10.4-23.3-23.3s10.4-23.3,23.3-23.3s23.3,10.4,23.3,23.3S238.4,169,225.6,169z"/>
</g>
</svg>
