<?xml version="1.0" encoding="utf-8"?>
<!-- Generator: Adobe Illustrator 19.0.1, SVG Export Plug-In . SVG Version: 6.00 Build 0)  -->
<svg version="1.1" id="Layer_1" xmlns="http://www.w3.org/2000/svg" xmlns:xlink="http://www.w3.org/1999/xlink" x="0px" y="0px"
	 viewBox="0 0 450 450" style="enable-background:new 0 0 450 450;" xml:space="preserve">
<style type="text/css">
	.st0{fill:#5B2B82;}
	.st1{fill:#0AB0ED;}
	.st2{fill:#002179;}
	.st3{fill:#125979;}
	.st4{fill:none;}
	.st5{fill:#FFFFFF;}
</style>
<g>
	<path class="st0" d="M263,86H122v278h206V149L263,86z M300,324H150v-16h150V324z M300,291H150v-16h150V291z M300,258H150v-16h150
		V258z M300,225H150v-16h150V225z M300,192H150v-16h150V192z M266,151v-41l41,41H266z"/>
	<g>
		<polygon class="st5" points="266,151 307,151 266,110 		"/>
	</g>
	<g>
		<rect x="150" y="176" class="st5" width="150" height="16"/>
	</g>
	<g>
		<rect x="150" y="209" class="st5" width="150" height="16"/>
	</g>
	<g>
		<rect x="150" y="242" class="st5" width="150" height="16"/>
	</g>
	<g>
		<rect x="150" y="275" class="st5" width="150" height="16"/>
	</g>
	<g>
		<rect x="150" y="308" class="st5" width="150" height="16"/>
	</g>
</g>
</svg>
