<?xml version="1.0" encoding="utf-8"?>
<!-- Generator: Adobe Illustrator 16.0.0, SVG Export Plug-In . SVG Version: 6.00 Build 0)  -->
<!DOCTYPE svg PUBLIC "-//W3C//DTD SVG 1.1//EN" "http://www.w3.org/Graphics/SVG/1.1/DTD/svg11.dtd">
<svg version="1.1" id="Layer_1" xmlns="http://www.w3.org/2000/svg" xmlns:xlink="http://www.w3.org/1999/xlink" x="0px" y="0px"
	 width="595.279px" height="841.891px" viewBox="0 0 595.279 841.891" enable-background="new 0 0 595.279 841.891"
	 xml:space="preserve">
<path fill="#5B2B82" d="M427.519,407.416c0-40.587-13.528-75.763-43.293-102.821c-29.764-27.058-62.233-43.293-102.82-43.293
	c-40.588,0-73.058,13.529-100.115,43.293c-27.059,29.764-43.294,62.234-43.294,102.821c0,40.587,13.529,75.763,43.294,102.821
	c29.764,27.058,62.233,43.293,102.82,43.293c40.588,0,75.763-13.529,102.821-43.293C413.99,480.473,427.519,445.298,427.519,407.416
	z M595.28,677.998c0,10.823-5.411,21.646-13.528,29.764c-8.118,8.117-18.941,13.529-29.765,13.529s-21.646-5.412-29.764-13.529
	L411.284,596.823c-37.882,27.059-81.175,40.587-129.879,40.587c-29.765,0-59.528-5.411-89.292-18.94
	c-29.765-13.529-51.411-27.058-73.058-48.704c-21.646-21.647-37.882-45.999-48.705-73.058s-16.234-59.528-16.234-89.292
	c0-29.764,5.411-59.528,18.94-89.292c13.529-29.764,27.059-51.411,48.705-73.057s45.999-37.881,73.057-48.705
	c27.059-10.824,56.822-18.941,89.292-18.941s59.528,5.412,89.292,18.941c29.765,13.529,51.411,27.058,73.058,48.705
	s37.881,45.999,48.704,73.057s18.941,56.822,18.941,89.292c0,48.705-13.529,91.998-40.588,129.879l110.939,110.939
	C592.574,656.352,595.28,664.469,595.28,677.998z"/>
</svg>
